<svg id="Layer_1" data-name="Layer 1" xmlns="http://www.w3.org/2000/svg" viewBox="0 0 167.25 167.25"><defs><style>.cls-1,.cls-3{fill-rule:evenodd;}.cls-2{fill:none;}.cls-2,.cls-3,.cls-4{stroke:#231f20;stroke-linecap:round;stroke-miterlimit:10;}.cls-3{fill:#fff;}.cls-4{fill:#e6e7e8;}</style></defs><title>MapLogo</title><path class="cls-1" d="M380.74,172.3v49.62H320.19V172.3Zm19.33,37.36s-1.95,4.82-.51,8,6.17,6.68,6.17,6.68S404.3,211.76,400.07,209.65Zm-14.9,24.47c4.66,1,10.88,6.44,9.14,14.12a14.73,14.73,0,0,0,5.82,15.67s17.62,7.7,16.52-15.67c-1.1-23.52-6.6-31.48-6.6-31.48s-10.33-19-16.08-22.34-3.39,2-3.39,2L398,206.94c-2.71,5.42-1,11.84-1,11.84l8.8,8.81s8.12,15.23,3.73,27.42-9.14-.34-9.14-.34a58.28,58.28,0,0,0-4.4-18.62c-2.76-6.42-7.85-6.78-10.84-6.34V166.64H315.3v105.5h-4v5.74h77.79v-5.74h-4v-38Z" transform="translate(-278.69 -130.07)"/><circle class="cls-2" cx="83.62" cy="83.63" r="74.02"/><path class="cls-3" d="M362.31,130.57a83.13,83.13,0,1,1-83.12,83.13A83.13,83.13,0,0,1,362.31,130.57Zm74,83.13a74,74,0,1,0-74,74A74,74,0,0,0,436.33,213.7Z" transform="translate(-278.69 -130.07)"/><line class="cls-4" x1="9.08" y1="85.59" x2="156.8" y2="85.59"/><line class="cls-4" x1="81.99" y1="9.43" x2="81.99" y2="156.49"/></svg>